<svg width="80" height="80" viewBox="0 0 80 80" fill="none" xmlns="http://www.w3.org/2000/svg">
<g id="la:frown-solid">
<path id="Vector" d="M40 10C23.4575 10 10 23.4575 10 40C10 56.5425 23.4575 70 40 70C56.5425 70 70 56.5425 70 40C70 23.4575 56.5425 10 40 10ZM40 15C53.8375 15 65 26.1625 65 40C65 53.8375 53.8375 65 40 65C26.1625 65 15 53.8375 15 40C15 26.1625 26.1625 15 40 15ZM28.75 30C27.7554 30 26.8016 30.3951 26.0983 31.0983C25.3951 31.8016 25 32.7554 25 33.75C25 34.7446 25.3951 35.6984 26.0983 36.4017C26.8016 37.1049 27.7554 37.5 28.75 37.5C29.7446 37.5 30.6984 37.1049 31.4017 36.4017C32.1049 35.6984 32.5 34.7446 32.5 33.75C32.5 32.7554 32.1049 31.8016 31.4017 31.0983C30.6984 30.3951 29.7446 30 28.75 30ZM51.25 30C50.2554 30 49.3016 30.3951 48.5984 31.0983C47.8951 31.8016 47.5 32.7554 47.5 33.75C47.5 34.7446 47.8951 35.6984 48.5984 36.4017C49.3016 37.1049 50.2554 37.5 51.25 37.5C52.2446 37.5 53.1984 37.1049 53.9016 36.4017C54.6049 35.6984 55 34.7446 55 33.75C55 32.7554 54.6049 31.8016 53.9016 31.0983C53.1984 30.3951 52.2446 30 51.25 30ZM40 45C33.33 45 27.45 48.34 23.8275 53.36L27.89 56.25C30.615 52.46 34.98 50 40 50C45.02 50 49.385 52.46 52.11 56.25L56.1725 53.36C52.5475 48.34 46.67 45 40 45Z" fill="#7D9AFF"/>
</g>
</svg>
