<svg width="20" height="20" viewBox="0 0 20 20" fill="none" xmlns="http://www.w3.org/2000/svg">
<path d="M14.7619 9.99995H8.09521M14.7619 13.8095H8.09521M14.7619 6.19043H8.09521" stroke="#191919" stroke-width="0.952381" stroke-linecap="round" stroke-linejoin="round"/>
<path fill-rule="evenodd" clip-rule="evenodd" d="M5.23713 7.1428C5.71332 7.1428 6.18952 6.66661 6.18952 6.19042C6.18952 5.71423 5.71332 5.23804 5.23713 5.23804C4.76094 5.23804 4.28571 5.71423 4.28571 6.19042C4.28571 6.66661 4.76094 7.1428 5.23713 7.1428ZM5.23713 10.9523C5.71332 10.9523 6.18952 10.4761 6.18952 9.99994C6.18952 9.52375 5.71332 9.04756 5.23713 9.04756C4.76094 9.04756 4.28571 9.52375 4.28571 9.99994C4.28571 10.4761 4.76094 10.9523 5.23713 10.9523ZM5.23713 14.7618C5.71332 14.7618 6.18952 14.2857 6.18952 13.8095C6.18952 13.3333 5.71332 12.8571 5.23713 12.8571C4.76094 12.8571 4.28571 13.3333 4.28571 13.8095C4.28571 14.2857 4.76094 14.7618 5.23713 14.7618Z" fill="#191919"/>
</svg>
