<svg width="20" height="21" viewBox="0 0 20 21" fill="none" xmlns="http://www.w3.org/2000/svg">
<g clip-path="url(#clip0_509_893)">
<path d="M17.95 13H14.1667C13.7246 13 13.3007 13.1756 12.9882 13.4882C12.6756 13.8007 12.5 14.2246 12.5 14.6667V18.45" stroke="#858582" stroke-width="1.5" stroke-linecap="round" stroke-linejoin="round"/>
<path d="M5.83325 3.28345V4.66678C5.83325 5.32982 6.09664 5.96571 6.56549 6.43455C7.03433 6.90339 7.67021 7.16678 8.33325 7.16678C8.77528 7.16678 9.1992 7.34238 9.51176 7.65494C9.82432 7.9675 9.99992 8.39142 9.99992 8.83345C9.99992 9.75011 10.7499 10.5001 11.6666 10.5001C12.1086 10.5001 12.5325 10.3245 12.8451 10.012C13.1577 9.6994 13.3333 9.27547 13.3333 8.83345C13.3333 7.91678 14.0833 7.16678 14.9999 7.16678H17.6416" stroke="#858582" stroke-width="1.5" stroke-linecap="round" stroke-linejoin="round"/>
<path d="M9.16658 18.7917V15.5001C9.16658 15.0581 8.99099 14.6341 8.67843 14.3216C8.36587 14.009 7.94195 13.8334 7.49992 13.8334C7.05789 13.8334 6.63397 13.6578 6.32141 13.3453C6.00885 13.0327 5.83325 12.6088 5.83325 12.1667V11.3334C5.83325 10.8914 5.65766 10.4675 5.3451 10.1549C5.03254 9.84234 4.60861 9.66675 4.16659 9.66675H1.70825" stroke="#858582" stroke-width="1.5" stroke-linecap="round" stroke-linejoin="round"/>
<path d="M10.0001 18.8334C14.6025 18.8334 18.3334 15.1025 18.3334 10.5001C18.3334 5.89771 14.6025 2.16675 10.0001 2.16675C5.39771 2.16675 1.66675 5.89771 1.66675 10.5001C1.66675 15.1025 5.39771 18.8334 10.0001 18.8334Z" stroke="#858582" stroke-width="1.5" stroke-linecap="round" stroke-linejoin="round"/>
</g>
<defs>
<clipPath id="clip0_509_893">
<rect width="20" height="20" fill="white" transform="translate(0 0.5)"/>
</clipPath>
</defs>
</svg>
