<svg width="20" height="21" viewBox="0 0 20 21" fill="none" xmlns="http://www.w3.org/2000/svg">
<g id="Frame">
<path id="Vector" d="M5 18.8333C6.38071 18.8333 7.5 17.714 7.5 16.3333C7.5 14.9525 6.38071 13.8333 5 13.8333C3.61929 13.8333 2.5 14.9525 2.5 16.3333C2.5 17.714 3.61929 18.8333 5 18.8333Z" stroke="#1347FF" stroke-width="1.5" stroke-linecap="round" stroke-linejoin="round"/>
<path id="Vector_2" d="M7.5 16.3334H14.5833C15.3569 16.3334 16.0987 16.0261 16.6457 15.4791C17.1927 14.9322 17.5 14.1903 17.5 13.4167C17.5 12.6432 17.1927 11.9013 16.6457 11.3544C16.0987 10.8074 15.3569 10.5001 14.5833 10.5001H5.41667C4.64312 10.5001 3.90125 10.1928 3.35427 9.64581C2.80729 9.09883 2.5 8.35696 2.5 7.58341C2.5 6.80987 2.80729 6.068 3.35427 5.52102C3.90125 4.97404 4.64312 4.66675 5.41667 4.66675H12.5" stroke="#1347FF" stroke-width="1.5" stroke-linecap="round" stroke-linejoin="round"/>
<path id="Vector_3" d="M15 7.16675C16.3807 7.16675 17.5 6.04746 17.5 4.66675C17.5 3.28604 16.3807 2.16675 15 2.16675C13.6193 2.16675 12.5 3.28604 12.5 4.66675C12.5 6.04746 13.6193 7.16675 15 7.16675Z" stroke="#1347FF" stroke-width="1.5" stroke-linecap="round" stroke-linejoin="round"/>
</g>
</svg>
